<mxfile host="app.diagrams.net" modified="2023-05-17T20:29:03.360Z" agent="Mozilla/5.0 (Macintosh; Intel Mac OS X 10_15_7) AppleWebKit/537.36 (KHTML, like Gecko) Chrome/113.0.0.0 Safari/537.36" etag="H6bOOdwPq4UK1MtFP7mD" version="21.3.2" type="device">
  <diagram id="P3egCbBItE-vjyixLVVF" name="Page-1">
    <mxGraphModel dx="1369" dy="753" grid="1" gridSize="10" guides="1" tooltips="1" connect="1" arrows="1" fold="1" page="1" pageScale="1" pageWidth="1100" pageHeight="850" math="0" shadow="0">
      <root>
        <mxCell id="0" />
        <mxCell id="1" parent="0" />
        <mxCell id="jG6GozPqLwCsJcZ_Rk5A-28" value="" style="shape=flexArrow;endArrow=none;html=1;rounded=0;exitX=0.25;exitY=1;exitDx=0;exitDy=0;endSize=5;startSize=5;endFill=0;" edge="1" parent="1">
          <mxGeometry width="50" height="50" relative="1" as="geometry">
            <mxPoint x="769.64" y="420" as="sourcePoint" />
            <mxPoint x="769.64" y="445" as="targetPoint" />
            <Array as="points" />
          </mxGeometry>
        </mxCell>
        <mxCell id="jG6GozPqLwCsJcZ_Rk5A-29" value="" style="shape=flexArrow;endArrow=none;html=1;rounded=0;exitX=0.25;exitY=1;exitDx=0;exitDy=0;endSize=5;startSize=5;endFill=0;" edge="1" parent="1">
          <mxGeometry width="50" height="50" relative="1" as="geometry">
            <mxPoint x="640" y="411" as="sourcePoint" />
            <mxPoint x="640" y="436" as="targetPoint" />
            <Array as="points" />
          </mxGeometry>
        </mxCell>
        <mxCell id="GU0txmYf8OZSagTrjstG-6" value="&lt;div&gt;Workstation&lt;/div&gt;" style="rounded=0;whiteSpace=wrap;html=1;verticalAlign=top;spacing=2;strokeWidth=2;" parent="1" vertex="1">
          <mxGeometry x="260" y="60" width="350" height="360" as="geometry" />
        </mxCell>
        <mxCell id="jG6GozPqLwCsJcZ_Rk5A-32" value="" style="endArrow=none;html=1;rounded=0;exitX=0.75;exitY=1;exitDx=0;exitDy=0;endFill=0;" edge="1" parent="1">
          <mxGeometry width="50" height="50" relative="1" as="geometry">
            <mxPoint x="710" y="420" as="sourcePoint" />
            <mxPoint x="710" y="460" as="targetPoint" />
            <Array as="points" />
          </mxGeometry>
        </mxCell>
        <mxCell id="jG6GozPqLwCsJcZ_Rk5A-31" value="" style="endArrow=none;html=1;rounded=0;exitX=0.75;exitY=1;exitDx=0;exitDy=0;endFill=0;" edge="1" parent="1">
          <mxGeometry width="50" height="50" relative="1" as="geometry">
            <mxPoint x="840" y="420" as="sourcePoint" />
            <mxPoint x="840" y="460" as="targetPoint" />
            <Array as="points" />
          </mxGeometry>
        </mxCell>
        <mxCell id="jG6GozPqLwCsJcZ_Rk5A-30" value="" style="endArrow=none;html=1;rounded=0;exitX=0.75;exitY=1;exitDx=0;exitDy=0;endFill=0;" edge="1" parent="1" source="jG6GozPqLwCsJcZ_Rk5A-6">
          <mxGeometry width="50" height="50" relative="1" as="geometry">
            <mxPoint x="1135" y="608" as="sourcePoint" />
            <mxPoint x="970" y="460" as="targetPoint" />
            <Array as="points" />
          </mxGeometry>
        </mxCell>
        <mxCell id="jG6GozPqLwCsJcZ_Rk5A-26" value="" style="shape=flexArrow;endArrow=none;html=1;rounded=0;exitX=0.25;exitY=1;exitDx=0;exitDy=0;endSize=5;startSize=5;endFill=0;" edge="1" parent="1" source="jG6GozPqLwCsJcZ_Rk5A-6">
          <mxGeometry width="50" height="50" relative="1" as="geometry">
            <mxPoint x="905" y="415" as="sourcePoint" />
            <mxPoint x="910" y="440" as="targetPoint" />
            <Array as="points" />
          </mxGeometry>
        </mxCell>
        <mxCell id="GU0txmYf8OZSagTrjstG-5" value="&lt;div&gt;Robot&lt;/div&gt;" style="rounded=0;whiteSpace=wrap;html=1;verticalAlign=top;spacing=2;strokeWidth=2;" parent="1" vertex="1">
          <mxGeometry x="810" y="60" width="120" height="130" as="geometry" />
        </mxCell>
        <mxCell id="GU0txmYf8OZSagTrjstG-4" value="Synthesis Station" style="rounded=0;whiteSpace=wrap;html=1;verticalAlign=bottom;spacing=2;strokeWidth=2;" parent="1" vertex="1">
          <mxGeometry x="620" y="210" width="120" height="210" as="geometry" />
        </mxCell>
        <mxCell id="ZZdG2KbTojn6cw3QZEdF-10" value="&lt;i&gt;&lt;b&gt;Orient&lt;/b&gt;&lt;/i&gt;" style="rounded=0;whiteSpace=wrap;html=1;dashed=1;fillColor=none;verticalAlign=bottom;" parent="1" vertex="1">
          <mxGeometry x="280" y="312" width="120" height="90" as="geometry" />
        </mxCell>
        <mxCell id="ZZdG2KbTojn6cw3QZEdF-11" value="&lt;b&gt;&lt;i&gt;Decide&lt;/i&gt;&lt;/b&gt;" style="rounded=0;whiteSpace=wrap;html=1;dashed=1;fillColor=none;verticalAlign=top;" parent="1" vertex="1">
          <mxGeometry x="280" y="90" width="120" height="90" as="geometry" />
        </mxCell>
        <mxCell id="ZZdG2KbTojn6cw3QZEdF-12" value="&lt;b&gt;&lt;i&gt;Act&lt;/i&gt;&lt;/b&gt;" style="rounded=0;whiteSpace=wrap;html=1;dashed=1;fillColor=none;verticalAlign=top;" parent="1" vertex="1">
          <mxGeometry x="410" y="90" width="540" height="90" as="geometry" />
        </mxCell>
        <mxCell id="ZZdG2KbTojn6cw3QZEdF-9" value="&lt;i&gt;&lt;b&gt;Observe&lt;/b&gt;&lt;/i&gt;" style="rounded=0;whiteSpace=wrap;html=1;dashed=1;fillColor=none;verticalAlign=bottom;" parent="1" vertex="1">
          <mxGeometry x="630" y="275" width="100" height="90" as="geometry" />
        </mxCell>
        <mxCell id="8yW3HtKEOS8D6HbiddwS-1" value="Experiment&lt;br&gt;Design Plan" style="sketch=0;pointerEvents=1;shadow=0;dashed=0;html=1;strokeColor=none;fillColor=#505050;labelPosition=center;verticalLabelPosition=bottom;verticalAlign=top;outlineConnect=0;align=center;shape=mxgraph.office.concepts.document;" parent="1" vertex="1">
          <mxGeometry x="190" y="120" width="30" height="40" as="geometry" />
        </mxCell>
        <mxCell id="8yW3HtKEOS8D6HbiddwS-2" value="Planner" style="rounded=1;whiteSpace=wrap;html=1;fillColor=#ffcd28;gradientColor=#ffa500;strokeColor=#d79b00;" parent="1" vertex="1">
          <mxGeometry x="300" y="120" width="80" height="40" as="geometry" />
        </mxCell>
        <mxCell id="8yW3HtKEOS8D6HbiddwS-9" value="" style="endArrow=classic;html=1;rounded=0;entryX=0;entryY=0.5;entryDx=0;entryDy=0;exitX=1;exitY=0.5;exitDx=0;exitDy=0;" parent="1" source="2AaaGLkXUIrztsOo1qRx-1" target="ZZdG2KbTojn6cw3QZEdF-2" edge="1">
          <mxGeometry width="50" height="50" relative="1" as="geometry">
            <mxPoint x="590" y="140" as="sourcePoint" />
            <mxPoint x="500" y="170" as="targetPoint" />
          </mxGeometry>
        </mxCell>
        <mxCell id="8yW3HtKEOS8D6HbiddwS-4" value="Test" style="ellipse;shape=cloud;whiteSpace=wrap;html=1;fillColor=#d5e8d4;gradientColor=#97d077;strokeColor=#82b366;" parent="1" vertex="1">
          <mxGeometry x="640" y="220" width="80" height="40" as="geometry" />
        </mxCell>
        <mxCell id="ZZdG2KbTojn6cw3QZEdF-1" value="Sensors" style="rounded=1;whiteSpace=wrap;html=1;fillColor=#fff2cc;gradientColor=#ffd966;strokeColor=#d6b656;" parent="1" vertex="1">
          <mxGeometry x="640" y="300" width="80" height="40" as="geometry" />
        </mxCell>
        <mxCell id="ZZdG2KbTojn6cw3QZEdF-2" value="Actuators" style="rounded=1;whiteSpace=wrap;html=1;fillColor=#fff2cc;gradientColor=#ffd966;strokeColor=#d6b656;" parent="1" vertex="1">
          <mxGeometry x="830" y="120" width="80" height="40" as="geometry" />
        </mxCell>
        <mxCell id="ZZdG2KbTojn6cw3QZEdF-3" value="" style="endArrow=classic;html=1;rounded=0;exitX=0;exitY=0.75;exitDx=0;exitDy=0;entryX=0.5;entryY=0;entryDx=0;entryDy=0;" parent="1" source="ZZdG2KbTojn6cw3QZEdF-2" target="GU0txmYf8OZSagTrjstG-4" edge="1">
          <mxGeometry width="50" height="50" relative="1" as="geometry">
            <mxPoint x="820" y="400" as="sourcePoint" />
            <mxPoint x="940" y="220" as="targetPoint" />
          </mxGeometry>
        </mxCell>
        <mxCell id="ZZdG2KbTojn6cw3QZEdF-5" value="Analyser" style="rounded=1;whiteSpace=wrap;html=1;fillColor=#ffcd28;gradientColor=#ffa500;strokeColor=#d79b00;" parent="1" vertex="1">
          <mxGeometry x="300" y="332" width="80" height="40" as="geometry" />
        </mxCell>
        <mxCell id="ZZdG2KbTojn6cw3QZEdF-6" value="" style="endArrow=classic;html=1;rounded=0;exitX=0.75;exitY=1;exitDx=0;exitDy=0;entryX=1;entryY=0.5;entryDx=0;entryDy=0;" parent="1" source="jG6GozPqLwCsJcZ_Rk5A-17" target="ZZdG2KbTojn6cw3QZEdF-5" edge="1">
          <mxGeometry width="50" height="50" relative="1" as="geometry">
            <mxPoint x="400" y="462" as="sourcePoint" />
            <mxPoint x="450" y="412" as="targetPoint" />
            <Array as="points">
              <mxPoint x="1100" y="460" />
              <mxPoint x="440" y="460" />
              <mxPoint x="440" y="352" />
            </Array>
          </mxGeometry>
        </mxCell>
        <mxCell id="ZZdG2KbTojn6cw3QZEdF-7" value="" style="endArrow=classic;html=1;rounded=0;exitX=0.5;exitY=0;exitDx=0;exitDy=0;entryX=0.5;entryY=1;entryDx=0;entryDy=0;" parent="1" source="ZZdG2KbTojn6cw3QZEdF-5" target="8yW3HtKEOS8D6HbiddwS-2" edge="1">
          <mxGeometry width="50" height="50" relative="1" as="geometry">
            <mxPoint x="380" y="410" as="sourcePoint" />
            <mxPoint x="430" y="360" as="targetPoint" />
          </mxGeometry>
        </mxCell>
        <mxCell id="ivcJ0Vw7QY5pCtP25yYA-1" value="&lt;font style=&quot;font-size: 16px&quot;&gt;&amp;nbsp;&lt;/font&gt;&lt;br style=&quot;font-size: 14px&quot;&gt;Shared Local&lt;br&gt;Storage&lt;br&gt;&amp;nbsp;&lt;br&gt;&amp;nbsp;" style="strokeWidth=1;html=1;shape=mxgraph.flowchart.database;whiteSpace=wrap;labelBackgroundColor=none;fillColor=#ffcd28;gradientColor=#ffa500;strokeColor=#d79b00;" parent="1" vertex="1">
          <mxGeometry x="420" y="220" width="90" height="110" as="geometry" />
        </mxCell>
        <mxCell id="ivcJ0Vw7QY5pCtP25yYA-2" value="" style="shape=flexArrow;endArrow=classic;html=1;rounded=0;exitX=0.25;exitY=1;exitDx=0;exitDy=0;entryX=0.456;entryY=1.014;entryDx=0;entryDy=0;entryPerimeter=0;endSize=5;startSize=5;fillColor=default;" parent="1" source="jG6GozPqLwCsJcZ_Rk5A-17" target="ivcJ0Vw7QY5pCtP25yYA-1" edge="1">
          <mxGeometry width="50" height="50" relative="1" as="geometry">
            <mxPoint x="400" y="442" as="sourcePoint" />
            <mxPoint x="510" y="290" as="targetPoint" />
            <Array as="points">
              <mxPoint x="1040" y="440" />
              <mxPoint x="460" y="440" />
            </Array>
          </mxGeometry>
        </mxCell>
        <mxCell id="ivcJ0Vw7QY5pCtP25yYA-3" value="" style="shape=flexArrow;endArrow=classic;html=1;rounded=0;exitX=0;exitY=0.85;exitDx=0;exitDy=0;entryX=1;entryY=0;entryDx=0;entryDy=0;exitPerimeter=0;startArrow=block;startSize=5;endSize=5;" parent="1" source="ivcJ0Vw7QY5pCtP25yYA-1" target="ZZdG2KbTojn6cw3QZEdF-5" edge="1">
          <mxGeometry width="50" height="50" relative="1" as="geometry">
            <mxPoint x="400" y="290" as="sourcePoint" />
            <mxPoint x="530" y="322" as="targetPoint" />
          </mxGeometry>
        </mxCell>
        <mxCell id="ivcJ0Vw7QY5pCtP25yYA-5" value="" style="shape=flexArrow;endArrow=classic;html=1;rounded=0;exitX=0;exitY=0.15;exitDx=0;exitDy=0;entryX=1;entryY=1;entryDx=0;entryDy=0;exitPerimeter=0;startArrow=block;startSize=5;endSize=5;" parent="1" source="ivcJ0Vw7QY5pCtP25yYA-1" target="8yW3HtKEOS8D6HbiddwS-2" edge="1">
          <mxGeometry width="50" height="50" relative="1" as="geometry">
            <mxPoint x="470" y="270" as="sourcePoint" />
            <mxPoint x="390" y="290" as="targetPoint" />
          </mxGeometry>
        </mxCell>
        <mxCell id="ivcJ0Vw7QY5pCtP25yYA-6" value="" style="shape=flexArrow;endArrow=classic;html=1;rounded=0;exitX=0.5;exitY=1;exitDx=0;exitDy=0;entryX=0.5;entryY=0;entryDx=0;entryDy=0;endSize=5;startSize=5;" parent="1" source="8yW3HtKEOS8D6HbiddwS-4" target="ZZdG2KbTojn6cw3QZEdF-1" edge="1">
          <mxGeometry width="50" height="50" relative="1" as="geometry">
            <mxPoint x="680" y="275" as="sourcePoint" />
            <mxPoint x="610" y="296" as="targetPoint" />
          </mxGeometry>
        </mxCell>
        <mxCell id="ivcJ0Vw7QY5pCtP25yYA-10" value="" style="shape=flexArrow;endArrow=classic;html=1;rounded=0;endSize=5;startSize=5;entryX=0;entryY=0.5;entryDx=0;entryDy=0;" parent="1" target="8yW3HtKEOS8D6HbiddwS-2" edge="1">
          <mxGeometry width="50" height="50" relative="1" as="geometry">
            <mxPoint x="230" y="140" as="sourcePoint" />
            <mxPoint x="680" y="240" as="targetPoint" />
          </mxGeometry>
        </mxCell>
        <mxCell id="2AaaGLkXUIrztsOo1qRx-1" value="Controllers&lt;br&gt;1-4" style="rounded=1;whiteSpace=wrap;html=1;fillColor=#fff2cc;gradientColor=#ffd966;strokeColor=#d6b656;" parent="1" vertex="1">
          <mxGeometry x="520" y="120" width="80" height="40" as="geometry" />
        </mxCell>
        <mxCell id="2AaaGLkXUIrztsOo1qRx-2" value="" style="endArrow=classic;html=1;rounded=0;entryX=0;entryY=0.5;entryDx=0;entryDy=0;" parent="1" source="8yW3HtKEOS8D6HbiddwS-2" target="jG6GozPqLwCsJcZ_Rk5A-33" edge="1">
          <mxGeometry width="50" height="50" relative="1" as="geometry">
            <mxPoint x="500" y="150" as="sourcePoint" />
            <mxPoint x="430" y="140" as="targetPoint" />
          </mxGeometry>
        </mxCell>
        <mxCell id="2AaaGLkXUIrztsOo1qRx-3" value="" style="shape=flexArrow;endArrow=classic;html=1;rounded=0;entryX=0.5;entryY=1;entryDx=0;entryDy=0;startArrow=block;startSize=5;endSize=5;exitX=1;exitY=0.15;exitDx=0;exitDy=0;exitPerimeter=0;" parent="1" source="ivcJ0Vw7QY5pCtP25yYA-1" target="2AaaGLkXUIrztsOo1qRx-1" edge="1">
          <mxGeometry width="50" height="50" relative="1" as="geometry">
            <mxPoint x="470" y="190" as="sourcePoint" />
            <mxPoint x="390" y="170" as="targetPoint" />
          </mxGeometry>
        </mxCell>
        <mxCell id="SNRxcdce0F2Zpgt7-SSr-9" value="&lt;i&gt;&lt;font style=&quot;font-size: 9px&quot;&gt;Experiment&lt;br&gt;Plans&lt;/font&gt;&lt;/i&gt;" style="text;html=1;align=left;verticalAlign=middle;resizable=0;points=[];autosize=1;strokeColor=none;fillColor=none;fontSize=10;" parent="1" vertex="1">
          <mxGeometry x="444" y="280" width="70" height="40" as="geometry" />
        </mxCell>
        <mxCell id="SNRxcdce0F2Zpgt7-SSr-10" value="" style="sketch=0;pointerEvents=1;shadow=0;dashed=0;html=1;strokeColor=none;fillColor=#505050;labelPosition=center;verticalLabelPosition=bottom;verticalAlign=top;outlineConnect=0;align=center;shape=mxgraph.office.concepts.document;" parent="1" vertex="1">
          <mxGeometry x="429" y="290" width="15" height="20" as="geometry" />
        </mxCell>
        <mxCell id="V2GhJfDMFdKhJT4zETZQ-1" value="Raw Experiment&lt;br&gt;Result" style="sketch=0;pointerEvents=1;shadow=0;dashed=0;html=1;strokeColor=none;fillColor=#505050;labelPosition=center;verticalLabelPosition=bottom;verticalAlign=top;outlineConnect=0;align=center;shape=mxgraph.office.concepts.document;" parent="1" vertex="1">
          <mxGeometry x="190" y="250" width="30" height="40" as="geometry" />
        </mxCell>
        <mxCell id="V2GhJfDMFdKhJT4zETZQ-2" value="" style="shape=flexArrow;endArrow=classic;html=1;rounded=0;endSize=5;startSize=5;exitX=0;exitY=0.5;exitDx=0;exitDy=0;exitPerimeter=0;" parent="1" source="ivcJ0Vw7QY5pCtP25yYA-1" edge="1">
          <mxGeometry width="50" height="50" relative="1" as="geometry">
            <mxPoint x="650" y="460" as="sourcePoint" />
            <mxPoint x="230" y="275" as="targetPoint" />
          </mxGeometry>
        </mxCell>
        <mxCell id="D8CCdXzMlvGCb-M7EkEC-5" value="&amp;nbsp;Control&amp;nbsp;" style="endArrow=classic;html=1;rounded=0;entryX=0;entryY=0.5;entryDx=0;entryDy=0;" parent="1" edge="1">
          <mxGeometry width="50" height="50" relative="1" as="geometry">
            <mxPoint x="170" y="429.5" as="sourcePoint" />
            <mxPoint x="240" y="429.5" as="targetPoint" />
          </mxGeometry>
        </mxCell>
        <mxCell id="D8CCdXzMlvGCb-M7EkEC-6" value="&amp;nbsp;Data&amp;nbsp;" style="shape=flexArrow;endArrow=classic;html=1;rounded=0;endSize=5;startSize=5;" parent="1" edge="1">
          <mxGeometry width="50" height="50" relative="1" as="geometry">
            <mxPoint x="170" y="459.5" as="sourcePoint" />
            <mxPoint x="240" y="459.5" as="targetPoint" />
          </mxGeometry>
        </mxCell>
        <mxCell id="jG6GozPqLwCsJcZ_Rk5A-1" value="Gas Chromatography Station" style="rounded=0;whiteSpace=wrap;html=1;verticalAlign=bottom;spacing=2;strokeWidth=2;" vertex="1" parent="1">
          <mxGeometry x="750" y="210" width="120" height="210" as="geometry" />
        </mxCell>
        <mxCell id="jG6GozPqLwCsJcZ_Rk5A-2" value="&lt;i&gt;&lt;b&gt;Observe&lt;/b&gt;&lt;/i&gt;" style="rounded=0;whiteSpace=wrap;html=1;dashed=1;fillColor=none;verticalAlign=bottom;" vertex="1" parent="1">
          <mxGeometry x="760" y="275" width="100" height="90" as="geometry" />
        </mxCell>
        <mxCell id="jG6GozPqLwCsJcZ_Rk5A-3" value="Test" style="ellipse;shape=cloud;whiteSpace=wrap;html=1;fillColor=#d5e8d4;gradientColor=#97d077;strokeColor=#82b366;" vertex="1" parent="1">
          <mxGeometry x="770" y="220" width="80" height="40" as="geometry" />
        </mxCell>
        <mxCell id="jG6GozPqLwCsJcZ_Rk5A-4" value="Sensors" style="rounded=1;whiteSpace=wrap;html=1;fillColor=#fff2cc;gradientColor=#ffd966;strokeColor=#d6b656;" vertex="1" parent="1">
          <mxGeometry x="770" y="300" width="80" height="40" as="geometry" />
        </mxCell>
        <mxCell id="jG6GozPqLwCsJcZ_Rk5A-5" value="" style="shape=flexArrow;endArrow=classic;html=1;rounded=0;exitX=0.5;exitY=1;exitDx=0;exitDy=0;entryX=0.5;entryY=0;entryDx=0;entryDy=0;endSize=5;startSize=5;" edge="1" parent="1" source="jG6GozPqLwCsJcZ_Rk5A-3" target="jG6GozPqLwCsJcZ_Rk5A-4">
          <mxGeometry width="50" height="50" relative="1" as="geometry">
            <mxPoint x="810" y="275" as="sourcePoint" />
            <mxPoint x="740" y="296" as="targetPoint" />
          </mxGeometry>
        </mxCell>
        <mxCell id="jG6GozPqLwCsJcZ_Rk5A-6" value="Liquid Chromatography Station" style="rounded=0;whiteSpace=wrap;html=1;verticalAlign=bottom;spacing=2;strokeWidth=2;" vertex="1" parent="1">
          <mxGeometry x="880" y="210" width="120" height="210" as="geometry" />
        </mxCell>
        <mxCell id="jG6GozPqLwCsJcZ_Rk5A-7" value="&lt;i&gt;&lt;b&gt;Observe&lt;/b&gt;&lt;/i&gt;" style="rounded=0;whiteSpace=wrap;html=1;dashed=1;fillColor=none;verticalAlign=bottom;" vertex="1" parent="1">
          <mxGeometry x="890" y="275" width="100" height="90" as="geometry" />
        </mxCell>
        <mxCell id="jG6GozPqLwCsJcZ_Rk5A-8" value="Test" style="ellipse;shape=cloud;whiteSpace=wrap;html=1;fillColor=#d5e8d4;gradientColor=#97d077;strokeColor=#82b366;" vertex="1" parent="1">
          <mxGeometry x="900" y="220" width="80" height="40" as="geometry" />
        </mxCell>
        <mxCell id="jG6GozPqLwCsJcZ_Rk5A-9" value="Sensors" style="rounded=1;whiteSpace=wrap;html=1;fillColor=#fff2cc;gradientColor=#ffd966;strokeColor=#d6b656;" vertex="1" parent="1">
          <mxGeometry x="900" y="300" width="80" height="40" as="geometry" />
        </mxCell>
        <mxCell id="jG6GozPqLwCsJcZ_Rk5A-10" value="" style="shape=flexArrow;endArrow=classic;html=1;rounded=0;exitX=0.5;exitY=1;exitDx=0;exitDy=0;entryX=0.5;entryY=0;entryDx=0;entryDy=0;endSize=5;startSize=5;" edge="1" parent="1" source="jG6GozPqLwCsJcZ_Rk5A-8" target="jG6GozPqLwCsJcZ_Rk5A-9">
          <mxGeometry width="50" height="50" relative="1" as="geometry">
            <mxPoint x="940" y="275" as="sourcePoint" />
            <mxPoint x="870" y="296" as="targetPoint" />
          </mxGeometry>
        </mxCell>
        <mxCell id="jG6GozPqLwCsJcZ_Rk5A-17" value="X-Ray Microscopy Station" style="rounded=0;whiteSpace=wrap;html=1;verticalAlign=bottom;spacing=2;strokeWidth=2;" vertex="1" parent="1">
          <mxGeometry x="1010" y="210" width="120" height="210" as="geometry" />
        </mxCell>
        <mxCell id="jG6GozPqLwCsJcZ_Rk5A-18" value="&lt;i&gt;&lt;b&gt;Observe&lt;/b&gt;&lt;/i&gt;" style="rounded=0;whiteSpace=wrap;html=1;dashed=1;fillColor=none;verticalAlign=bottom;" vertex="1" parent="1">
          <mxGeometry x="1020" y="275" width="100" height="90" as="geometry" />
        </mxCell>
        <mxCell id="jG6GozPqLwCsJcZ_Rk5A-19" value="Test" style="ellipse;shape=cloud;whiteSpace=wrap;html=1;fillColor=#d5e8d4;gradientColor=#97d077;strokeColor=#82b366;" vertex="1" parent="1">
          <mxGeometry x="1030" y="220" width="80" height="40" as="geometry" />
        </mxCell>
        <mxCell id="jG6GozPqLwCsJcZ_Rk5A-20" value="Sensors" style="rounded=1;whiteSpace=wrap;html=1;fillColor=#fff2cc;gradientColor=#ffd966;strokeColor=#d6b656;" vertex="1" parent="1">
          <mxGeometry x="1030" y="300" width="80" height="40" as="geometry" />
        </mxCell>
        <mxCell id="jG6GozPqLwCsJcZ_Rk5A-21" value="" style="shape=flexArrow;endArrow=classic;html=1;rounded=0;exitX=0.5;exitY=1;exitDx=0;exitDy=0;entryX=0.5;entryY=0;entryDx=0;entryDy=0;endSize=5;startSize=5;" edge="1" parent="1" source="jG6GozPqLwCsJcZ_Rk5A-19" target="jG6GozPqLwCsJcZ_Rk5A-20">
          <mxGeometry width="50" height="50" relative="1" as="geometry">
            <mxPoint x="1070" y="275" as="sourcePoint" />
            <mxPoint x="1000" y="296" as="targetPoint" />
          </mxGeometry>
        </mxCell>
        <mxCell id="jG6GozPqLwCsJcZ_Rk5A-22" value="" style="endArrow=classic;html=1;rounded=0;entryX=0.5;entryY=0;entryDx=0;entryDy=0;" edge="1" parent="1" source="ZZdG2KbTojn6cw3QZEdF-2" target="jG6GozPqLwCsJcZ_Rk5A-1">
          <mxGeometry width="50" height="50" relative="1" as="geometry">
            <mxPoint x="950" y="170" as="sourcePoint" />
            <mxPoint x="710" y="220" as="targetPoint" />
          </mxGeometry>
        </mxCell>
        <mxCell id="jG6GozPqLwCsJcZ_Rk5A-23" value="" style="endArrow=classic;html=1;rounded=0;entryX=0.5;entryY=0;entryDx=0;entryDy=0;" edge="1" parent="1" source="ZZdG2KbTojn6cw3QZEdF-2" target="jG6GozPqLwCsJcZ_Rk5A-6">
          <mxGeometry width="50" height="50" relative="1" as="geometry">
            <mxPoint x="957" y="168" as="sourcePoint" />
            <mxPoint x="870" y="220" as="targetPoint" />
          </mxGeometry>
        </mxCell>
        <mxCell id="jG6GozPqLwCsJcZ_Rk5A-24" value="" style="endArrow=classic;html=1;rounded=0;entryX=0.5;entryY=0;entryDx=0;entryDy=0;" edge="1" parent="1" source="ZZdG2KbTojn6cw3QZEdF-2" target="jG6GozPqLwCsJcZ_Rk5A-17">
          <mxGeometry width="50" height="50" relative="1" as="geometry">
            <mxPoint x="950" y="170" as="sourcePoint" />
            <mxPoint x="1030" y="220" as="targetPoint" />
          </mxGeometry>
        </mxCell>
        <mxCell id="jG6GozPqLwCsJcZ_Rk5A-33" value="Multi-&lt;br&gt;Experiment&lt;br&gt;Workflow&lt;br&gt;Controller" style="rounded=1;whiteSpace=wrap;html=1;fillColor=#dae8fc;gradientColor=#7ea6e0;strokeColor=#6c8ebf;" vertex="1" parent="1">
          <mxGeometry x="425" y="105" width="80" height="70" as="geometry" />
        </mxCell>
        <mxCell id="jG6GozPqLwCsJcZ_Rk5A-35" value="" style="endArrow=classic;html=1;rounded=0;entryX=0;entryY=0.5;entryDx=0;entryDy=0;exitX=1;exitY=0.5;exitDx=0;exitDy=0;" edge="1" parent="1" source="jG6GozPqLwCsJcZ_Rk5A-33" target="2AaaGLkXUIrztsOo1qRx-1">
          <mxGeometry width="50" height="50" relative="1" as="geometry">
            <mxPoint x="366" y="130" as="sourcePoint" />
            <mxPoint x="420" y="65" as="targetPoint" />
          </mxGeometry>
        </mxCell>
        <mxCell id="jG6GozPqLwCsJcZ_Rk5A-36" value="" style="shape=flexArrow;endArrow=classic;html=1;rounded=0;entryX=0.5;entryY=1;entryDx=0;entryDy=0;startArrow=block;startSize=5;endSize=5;exitX=0.5;exitY=0;exitDx=0;exitDy=0;exitPerimeter=0;" edge="1" parent="1" source="ivcJ0Vw7QY5pCtP25yYA-1" target="jG6GozPqLwCsJcZ_Rk5A-33">
          <mxGeometry width="50" height="50" relative="1" as="geometry">
            <mxPoint x="500" y="217" as="sourcePoint" />
            <mxPoint x="570" y="170" as="targetPoint" />
          </mxGeometry>
        </mxCell>
      </root>
    </mxGraphModel>
  </diagram>
</mxfile>
